<mxfile host="app.diagrams.net" modified="2023-02-20T10:10:43.793Z" agent="5.0 (Windows NT 10.0; Win64; x64) AppleWebKit/537.36 (KHTML, like Gecko) Chrome/110.0.0.0 Safari/537.36" etag="fh5vmIb6iV_sOG5ArNK3" version="20.8.13" type="github">
  <diagram name="Page-1" id="AiJfupJxOVyc33xp20VV">
    <mxGraphModel dx="794" dy="405" grid="1" gridSize="10" guides="1" tooltips="1" connect="1" arrows="1" fold="1" page="1" pageScale="1" pageWidth="850" pageHeight="1100" math="0" shadow="0">
      <root>
        <mxCell id="0" />
        <mxCell id="1" parent="0" />
        <mxCell id="SpJxWxyXYCM10lWLeVnH-6" style="edgeStyle=orthogonalEdgeStyle;rounded=0;orthogonalLoop=1;jettySize=auto;html=1;entryX=0.5;entryY=0;entryDx=0;entryDy=0;" edge="1" parent="1" source="SpJxWxyXYCM10lWLeVnH-1" target="SpJxWxyXYCM10lWLeVnH-2">
          <mxGeometry relative="1" as="geometry" />
        </mxCell>
        <mxCell id="SpJxWxyXYCM10lWLeVnH-1" value="Start" style="ellipse;whiteSpace=wrap;html=1;fillColor=#ffe6cc;strokeColor=#d79b00;" vertex="1" parent="1">
          <mxGeometry x="350" y="200" width="120" height="40" as="geometry" />
        </mxCell>
        <mxCell id="SpJxWxyXYCM10lWLeVnH-7" value="" style="edgeStyle=orthogonalEdgeStyle;rounded=0;orthogonalLoop=1;jettySize=auto;html=1;" edge="1" parent="1" source="SpJxWxyXYCM10lWLeVnH-2" target="SpJxWxyXYCM10lWLeVnH-3">
          <mxGeometry relative="1" as="geometry" />
        </mxCell>
        <mxCell id="SpJxWxyXYCM10lWLeVnH-2" value="Employee" style="whiteSpace=wrap;html=1;fillColor=#dae8fc;strokeColor=#6c8ebf;" vertex="1" parent="1">
          <mxGeometry x="350" y="270" width="120" height="60" as="geometry" />
        </mxCell>
        <mxCell id="SpJxWxyXYCM10lWLeVnH-8" value="" style="edgeStyle=orthogonalEdgeStyle;rounded=0;orthogonalLoop=1;jettySize=auto;html=1;" edge="1" parent="1" source="SpJxWxyXYCM10lWLeVnH-3" target="SpJxWxyXYCM10lWLeVnH-4">
          <mxGeometry relative="1" as="geometry" />
        </mxCell>
        <mxCell id="SpJxWxyXYCM10lWLeVnH-3" value="Request Medical Reimbursement" style="shape=parallelogram;perimeter=parallelogramPerimeter;whiteSpace=wrap;html=1;fixedSize=1;fillColor=#d5e8d4;strokeColor=#82b366;" vertex="1" parent="1">
          <mxGeometry x="350" y="360" width="120" height="60" as="geometry" />
        </mxCell>
        <mxCell id="SpJxWxyXYCM10lWLeVnH-9" value="" style="edgeStyle=orthogonalEdgeStyle;rounded=0;orthogonalLoop=1;jettySize=auto;html=1;" edge="1" parent="1" source="SpJxWxyXYCM10lWLeVnH-4" target="SpJxWxyXYCM10lWLeVnH-5">
          <mxGeometry relative="1" as="geometry" />
        </mxCell>
        <mxCell id="SpJxWxyXYCM10lWLeVnH-4" value="Human Resource" style="whiteSpace=wrap;html=1;fillColor=#dae8fc;strokeColor=#6c8ebf;" vertex="1" parent="1">
          <mxGeometry x="350" y="450" width="120" height="60" as="geometry" />
        </mxCell>
        <mxCell id="SpJxWxyXYCM10lWLeVnH-14" value="" style="edgeStyle=orthogonalEdgeStyle;rounded=0;orthogonalLoop=1;jettySize=auto;html=1;" edge="1" parent="1" source="SpJxWxyXYCM10lWLeVnH-5" target="SpJxWxyXYCM10lWLeVnH-13">
          <mxGeometry relative="1" as="geometry" />
        </mxCell>
        <mxCell id="SpJxWxyXYCM10lWLeVnH-5" value="Response (Approve/Reject/Draft)" style="shape=parallelogram;perimeter=parallelogramPerimeter;whiteSpace=wrap;html=1;fixedSize=1;fillColor=#d5e8d4;strokeColor=#82b366;" vertex="1" parent="1">
          <mxGeometry x="330" y="550" width="160" height="60" as="geometry" />
        </mxCell>
        <mxCell id="SpJxWxyXYCM10lWLeVnH-19" style="edgeStyle=orthogonalEdgeStyle;rounded=0;orthogonalLoop=1;jettySize=auto;html=1;" edge="1" parent="1" source="SpJxWxyXYCM10lWLeVnH-11" target="SpJxWxyXYCM10lWLeVnH-2">
          <mxGeometry relative="1" as="geometry">
            <mxPoint x="580" y="310" as="targetPoint" />
            <Array as="points">
              <mxPoint x="555" y="300" />
            </Array>
          </mxGeometry>
        </mxCell>
        <mxCell id="SpJxWxyXYCM10lWLeVnH-20" value="" style="edgeStyle=orthogonalEdgeStyle;rounded=0;orthogonalLoop=1;jettySize=auto;html=1;" edge="1" parent="1" source="SpJxWxyXYCM10lWLeVnH-11" target="SpJxWxyXYCM10lWLeVnH-12">
          <mxGeometry relative="1" as="geometry" />
        </mxCell>
        <mxCell id="SpJxWxyXYCM10lWLeVnH-11" value="Rejected?" style="rhombus;whiteSpace=wrap;html=1;fillColor=#fff2cc;strokeColor=#d6b656;" vertex="1" parent="1">
          <mxGeometry x="500" y="640" width="110" height="80" as="geometry" />
        </mxCell>
        <mxCell id="SpJxWxyXYCM10lWLeVnH-21" style="edgeStyle=orthogonalEdgeStyle;rounded=0;orthogonalLoop=1;jettySize=auto;html=1;entryX=1;entryY=0.25;entryDx=0;entryDy=0;" edge="1" parent="1" source="SpJxWxyXYCM10lWLeVnH-12" target="SpJxWxyXYCM10lWLeVnH-2">
          <mxGeometry relative="1" as="geometry">
            <Array as="points">
              <mxPoint x="705" y="285" />
            </Array>
          </mxGeometry>
        </mxCell>
        <mxCell id="SpJxWxyXYCM10lWLeVnH-32" style="edgeStyle=orthogonalEdgeStyle;rounded=0;orthogonalLoop=1;jettySize=auto;html=1;entryX=1.033;entryY=0.725;entryDx=0;entryDy=0;entryPerimeter=0;" edge="1" parent="1" source="SpJxWxyXYCM10lWLeVnH-12" target="SpJxWxyXYCM10lWLeVnH-16">
          <mxGeometry relative="1" as="geometry">
            <Array as="points">
              <mxPoint x="705" y="779" />
            </Array>
          </mxGeometry>
        </mxCell>
        <mxCell id="SpJxWxyXYCM10lWLeVnH-12" value="Set to Draft?" style="rhombus;whiteSpace=wrap;html=1;fillColor=#fff2cc;strokeColor=#d6b656;" vertex="1" parent="1">
          <mxGeometry x="650" y="640" width="110" height="80" as="geometry" />
        </mxCell>
        <mxCell id="SpJxWxyXYCM10lWLeVnH-17" value="" style="edgeStyle=orthogonalEdgeStyle;rounded=0;orthogonalLoop=1;jettySize=auto;html=1;" edge="1" parent="1" source="SpJxWxyXYCM10lWLeVnH-13" target="SpJxWxyXYCM10lWLeVnH-16">
          <mxGeometry relative="1" as="geometry" />
        </mxCell>
        <mxCell id="SpJxWxyXYCM10lWLeVnH-18" value="" style="edgeStyle=orthogonalEdgeStyle;rounded=0;orthogonalLoop=1;jettySize=auto;html=1;" edge="1" parent="1" source="SpJxWxyXYCM10lWLeVnH-13" target="SpJxWxyXYCM10lWLeVnH-11">
          <mxGeometry relative="1" as="geometry" />
        </mxCell>
        <mxCell id="SpJxWxyXYCM10lWLeVnH-13" value="Approved?" style="rhombus;whiteSpace=wrap;html=1;fillColor=#fff2cc;strokeColor=#d6b656;" vertex="1" parent="1">
          <mxGeometry x="355" y="640" width="110" height="80" as="geometry" />
        </mxCell>
        <mxCell id="SpJxWxyXYCM10lWLeVnH-16" value="End" style="ellipse;whiteSpace=wrap;html=1;fillColor=#ffe6cc;strokeColor=#d79b00;" vertex="1" parent="1">
          <mxGeometry x="350" y="750" width="120" height="40" as="geometry" />
        </mxCell>
        <mxCell id="SpJxWxyXYCM10lWLeVnH-22" value="No" style="text;html=1;strokeColor=none;fillColor=none;align=center;verticalAlign=middle;whiteSpace=wrap;rounded=0;" vertex="1" parent="1">
          <mxGeometry x="446" y="649" width="60" height="30" as="geometry" />
        </mxCell>
        <mxCell id="SpJxWxyXYCM10lWLeVnH-26" value="No" style="text;html=1;strokeColor=none;fillColor=none;align=center;verticalAlign=middle;whiteSpace=wrap;rounded=0;" vertex="1" parent="1">
          <mxGeometry x="600" y="649" width="60" height="30" as="geometry" />
        </mxCell>
        <mxCell id="SpJxWxyXYCM10lWLeVnH-28" value="Yes" style="text;html=1;strokeColor=none;fillColor=none;align=center;verticalAlign=middle;whiteSpace=wrap;rounded=0;" vertex="1" parent="1">
          <mxGeometry x="395" y="716" width="60" height="30" as="geometry" />
        </mxCell>
        <mxCell id="SpJxWxyXYCM10lWLeVnH-29" value="Yes" style="text;html=1;strokeColor=none;fillColor=none;align=center;verticalAlign=middle;whiteSpace=wrap;rounded=0;" vertex="1" parent="1">
          <mxGeometry x="540" y="600" width="60" height="30" as="geometry" />
        </mxCell>
        <mxCell id="SpJxWxyXYCM10lWLeVnH-30" value="Yes" style="text;html=1;strokeColor=none;fillColor=none;align=center;verticalAlign=middle;whiteSpace=wrap;rounded=0;" vertex="1" parent="1">
          <mxGeometry x="691" y="600" width="60" height="30" as="geometry" />
        </mxCell>
        <mxCell id="SpJxWxyXYCM10lWLeVnH-33" value="No" style="text;html=1;strokeColor=none;fillColor=none;align=center;verticalAlign=middle;whiteSpace=wrap;rounded=0;" vertex="1" parent="1">
          <mxGeometry x="610" y="750" width="60" height="30" as="geometry" />
        </mxCell>
      </root>
    </mxGraphModel>
  </diagram>
</mxfile>
